<svg xmlns="http://www.w3.org/2000/svg" width="16" height="16" viewBox="0 0 16 16">
  <g fill="none" fill-rule="evenodd">
    <circle cx="8" cy="8" r="8" fill="#F76260"/>
    <path fill="#FFFFFF" d="M3.86,6.888 C3.524,7.308 3.152,7.716 2.768,8.124 L2.396,6.912 C3.62,5.544 4.52,3.936 5.096,2.1 L6.176,2.604 C5.876,3.516 5.48,4.392 5,5.22 L5,13.248 L3.86,13.248 L3.86,6.888 Z M6.02,4.488 L8.744,4.488 L8.744,2.244 L9.86,2.244 L9.86,4.488 L12.872,4.488 L12.872,5.58 L10.568,5.58 C11.264,7.452 12.272,9.012 13.592,10.284 L12.836,11.316 C11.66,9.924 10.676,8.052 9.86,5.7 L9.86,13.236 L8.744,13.236 L8.744,5.724 C7.988,8.112 7.028,10.008 5.864,11.4 L5.204,10.32 C6.392,9.144 7.34,7.56 8.036,5.58 L6.02,5.58 L6.02,4.488 Z"/>
  </g>
</svg>
